<svg xmlns="http://www.w3.org/2000/svg" width="120.001" height="113.68" viewBox="0 0 120.001 113.68">
  <path id="Icon_awesome-crown" data-name="Icon awesome-crown" d="M76.219,64.671H16.168a2.316,2.316,0,0,0-2.31,2.31V71.6a2.316,2.316,0,0,0,2.31,2.31H76.219a2.316,2.316,0,0,0,2.31-2.31V66.98A2.316,2.316,0,0,0,76.219,64.671Zm9.239-46.193a6.931,6.931,0,0,0-6.929,6.929,6.789,6.789,0,0,0,.635,2.858L68.713,34.53a4.613,4.613,0,0,1-6.38-1.675L50.567,12.27a6.929,6.929,0,1,0-8.748,0L30.055,32.855a4.616,4.616,0,0,1-6.38,1.675L13.237,28.265a6.927,6.927,0,1,0-6.308,4.071,7.075,7.075,0,0,0,1.112-.115L18.477,60.051H73.909L84.346,32.22a7.075,7.075,0,0,0,1.112.115,6.929,6.929,0,1,0,0-13.858Z" transform="translate(1.372 48.955) rotate(-31)" fill="none" stroke="#f2f2f2" stroke-width="2"/>
</svg>
