<svg xmlns="http://www.w3.org/2000/svg" width="18.867" height="18.141" viewBox="0 0 18.867 18.141">
  <path id="Icon_ionic-ios-heart-empty" data-name="Icon ionic-ios-heart-empty" d="M17.162,3.937h-.045A5.16,5.16,0,0,0,12.808,6.3,5.16,5.16,0,0,0,8.5,3.937H8.454A5.128,5.128,0,0,0,3.375,9.062a11.04,11.04,0,0,0,2.168,6.018,37.99,37.99,0,0,0,7.265,7,37.99,37.99,0,0,0,7.265-7,11.04,11.04,0,0,0,2.168-6.018A5.128,5.128,0,0,0,17.162,3.937Zm1.887,10.395a34.785,34.785,0,0,1-6.24,6.15,34.837,34.837,0,0,1-6.241-6.154A9.784,9.784,0,0,1,4.645,9.062a3.848,3.848,0,0,1,3.819-3.85H8.5a3.8,3.8,0,0,1,1.864.49,3.963,3.963,0,0,1,1.379,1.293,1.274,1.274,0,0,0,2.132,0A4,4,0,0,1,15.257,5.7a3.8,3.8,0,0,1,1.864-.49h.041a3.848,3.848,0,0,1,3.819,3.85A9.908,9.908,0,0,1,19.049,14.332Z" transform="translate(-3.375 -3.938)" fill="#fff"/>
</svg>
