<svg xmlns="http://www.w3.org/2000/svg" width="38.009" height="38" viewBox="0 0 38.009 38">
  <path id="Icon_awesome-instagram" data-name="Icon awesome-instagram" d="M19,11.5a9.743,9.743,0,1,0,9.743,9.743A9.727,9.727,0,0,0,19,11.5Zm0,16.077a6.334,6.334,0,1,1,6.334-6.334A6.346,6.346,0,0,1,19,27.572ZM31.417,11.1a2.272,2.272,0,1,1-2.272-2.272A2.267,2.267,0,0,1,31.417,11.1ZM37.87,13.4c-.144-3.044-.839-5.741-3.07-7.962s-4.918-2.917-7.962-3.07c-3.137-.178-12.541-.178-15.678,0-3.036.144-5.732.839-7.962,3.061S.281,10.35.128,13.394c-.178,3.137-.178,12.541,0,15.678.144,3.044.839,5.741,3.07,7.962s4.918,2.917,7.962,3.07c3.137.178,12.541.178,15.678,0,3.044-.144,5.741-.839,7.962-3.07s2.917-4.918,3.07-7.962c.178-3.137.178-12.532,0-15.67ZM33.817,32.439A6.413,6.413,0,0,1,30.2,36.051c-2.5.992-8.437.763-11.2.763s-8.708.22-11.2-.763A6.413,6.413,0,0,1,4.19,32.439c-.992-2.5-.763-8.437-.763-11.2s-.22-8.708.763-11.2A6.413,6.413,0,0,1,7.8,6.424c2.5-.992,8.437-.763,11.2-.763s8.708-.22,11.2.763a6.413,6.413,0,0,1,3.612,3.612c.992,2.5.763,8.437.763,11.2S34.809,29.946,33.817,32.439Z" transform="translate(0.005 -2.238)" fill="#f5f5f5"/>
</svg>
